<?xml version="1.0" encoding="iso-8859-1"?>
<!-- Uploaded to: SVG Repo, www.svgrepo.com, Generator: SVG Repo Mixer Tools -->
<svg fill="#000000" height="800px" width="800px" version="1.1" id="Layer_1" xmlns="http://www.w3.org/2000/svg" xmlns:xlink="http://www.w3.org/1999/xlink" 
	 viewBox="0 0 512 512" xml:space="preserve">
<g>
	<g>
		<path d="M423.911,69.551C379.061,24.7,319.428,0,256,0C192.572,0,132.939,24.7,88.089,69.55
			c-44.851,44.851-69.551,104.483-69.551,167.911v180.576c0,5.633,4.566,10.199,10.199,10.199h34.559
			c24.427,0,44.3-19.873,44.3-44.3v-93.834c0-24.427-19.873-44.3-44.3-44.3h-24.36v-8.339C38.936,117.772,136.31,20.398,256,20.398
			c68.305,0,129.33,31.723,169.15,81.198c-0.651-0.551-1.291-1.108-1.951-1.653C378.45,62.944,319.071,42.568,256,42.568
			c-29.96,0-59.167,4.589-86.807,13.639c-5.354,1.752-8.272,7.513-6.519,12.866s7.516,8.274,12.866,6.519
			c25.589-8.378,52.659-12.626,80.46-12.626c119.69,0,217.063,79.718,217.063,177.705v5.128h-24.359
			c-24.427,0-44.3,19.873-44.3,44.3v93.834c0,22.916,17.491,41.823,39.823,44.075v73.791c0,5.633,4.566,10.199,10.199,10.199
			c5.633,0,10.199-4.566,10.199-10.199v-73.565h18.638c5.633,0,10.199-4.566,10.199-10.199V237.462
			C493.462,174.034,468.761,114.401,423.911,69.551z M63.296,266.199c13.178,0,23.902,10.722,23.902,23.902v93.834
			c0,13.179-10.722,23.902-23.902,23.902h-24.36V266.199H63.296z M473.064,407.838h-24.36c-13.179,0-23.902-10.722-23.902-23.902
			v-93.834c0-13.179,10.722-23.902,23.902-23.902h24.36V407.838z"/>
	</g>
</g>
<g>
	<g>
		<path d="M143.666,77.052c-2.611-4.992-8.773-6.919-13.765-4.309c-2.143,1.121-4.291,2.286-6.386,3.462
			c-4.911,2.758-6.657,8.975-3.9,13.887c1.872,3.333,5.334,5.208,8.903,5.208c1.69,0,3.404-0.421,4.984-1.308
			c1.919-1.078,3.889-2.146,5.854-3.174C144.348,88.206,146.277,82.043,143.666,77.052z"/>
	</g>
</g>
</svg>